<?xml version="1.0" standalone="no"?>
<!DOCTYPE svg PUBLIC "-//W3C//DTD SVG 20010904//EN"
 "http://www.w3.org/TR/2001/REC-SVG-20010904/DTD/svg10.dtd">
<svg version="1.0" xmlns="http://www.w3.org/2000/svg"
 width="740.000000pt" height="740.000000pt" viewBox="0 0 740.000000 740.000000"
 preserveAspectRatio="xMidYMid meet">

<g transform="translate(0.000000,740.000000) scale(0.100000,-0.100000)"
fill="#000000" stroke="none">
<path d="M4755 6058 c-87 -32 -131 -75 -290 -289 -113 -151 -160 -208 -168
-200 -17 17 -72 13 -90 -7 -10 -10 -17 -31 -17 -47 0 -21 -15 -44 -57 -89 -32
-34 -62 -63 -68 -65 -56 -21 -59 -74 -7 -122 33 -31 194 -168 230 -194 11 -9
9 -11 -7 -11 -12 0 -21 6 -21 14 0 7 -5 10 -10 7 -6 -4 -8 -10 -5 -15 3 -4 -2
-11 -11 -14 -24 -9 -31 -7 -14 4 8 5 11 10 5 10 -5 0 -16 -4 -24 -9 -11 -7 -9
-14 14 -35 36 -33 22 -34 -19 -1 -17 14 -94 76 -171 137 -77 61 -158 126 -179
144 -22 19 -54 37 -73 40 -62 12 -86 -9 -209 -175 -64 -86 -123 -170 -132
-188 -23 -48 -3 -83 89 -155 l77 -62 -26 -37 -27 -37 -195 -4 c-163 -4 -206
-9 -260 -26 -180 -59 -331 -208 -391 -387 -11 -32 -15 -219 -19 -905 l-5 -865
-190 -5 c-187 -5 -191 -5 -243 -35 -87 -48 -137 -123 -150 -223 l-7 -57 -40
-3 c-54 -5 -85 -35 -85 -82 0 -25 7 -43 21 -56 21 -18 65 -19 1693 -22 1144
-2 1682 0 1707 8 42 12 64 51 53 94 -8 35 -40 56 -85 56 l-37 0 -7 53 c-15
110 -70 189 -165 239 l-45 23 -525 5 -525 5 0 225 0 225 140 -3 c209 -5 343 6
366 29 29 29 25 83 -7 108 -24 19 -40 21 -181 21 -137 0 -154 2 -159 18 -37
115 -1 108 -529 104 -478 -4 -485 -4 -500 -52 -5 -17 -15 -20 -61 -20 -64 0
-73 17 -11 22 l42 3 5 492 5 491 24 26 c24 26 97 53 109 41 3 -3 7 -15 9 -27
5 -31 21 -46 155 -150 65 -50 118 -95 118 -100 0 -5 -29 -47 -65 -95 -89 -118
-88 -133 4 -208 129 -102 143 -100 236 25 37 49 69 90 71 90 2 0 24 -16 50
-35 36 -28 55 -35 90 -35 41 0 46 3 89 58 25 31 53 77 62 102 9 25 23 49 30
53 8 5 51 59 97 122 46 62 89 115 94 119 6 3 33 -10 62 -29 52 -35 87 -43 119
-26 24 13 279 352 282 376 7 50 -12 73 -155 189 -79 64 -149 123 -156 131 -9
11 -6 21 15 49 l27 35 50 -39 c58 -47 80 -49 114 -15 27 27 26 59 -3 82 -8 6
-13 18 -10 25 4 11 6 11 6 0 1 -7 6 -10 13 -6 7 5 8 3 3 -6 -5 -8 -3 -11 6 -8
8 3 15 15 15 27 1 12 5 25 9 29 5 4 5 -2 1 -12 -6 -16 -4 -17 9 -6 9 7 14 18
12 25 -5 11 20 52 28 48 3 -2 8 -3 13 -2 4 1 21 0 39 -1 24 -1 36 5 49 26 17
25 17 28 1 57 -15 25 -15 33 -5 48 7 10 81 107 164 216 195 255 199 263 199
378 0 78 -4 97 -28 146 -32 67 -104 137 -178 175 -46 24 -68 28 -149 31 -53 1
-108 -2 -125 -9z m220 -117 c22 -10 48 -27 58 -38 17 -20 17 -20 -25 -27 -84
-14 -108 -37 -294 -283 l-176 -233 -58 46 c-103 81 -110 52 68 289 134 179
165 214 207 237 62 34 157 38 220 9z m-554 -634 c235 -192 245 -202 225 -210
-10 -4 -13 -1 -10 7 3 7 -1 16 -10 19 -8 3 -17 -1 -20 -9 -3 -8 -2 -13 3 -9
11 6 8 -22 -4 -32 -4 -4 -5 -2 -1 5 4 7 1 12 -8 12 -9 0 -16 -7 -16 -15 0 -8
-3 -15 -7 -15 -5 0 -17 -12 -27 -27 -11 -14 -14 -23 -8 -19 6 3 16 -3 22 -14
6 -11 8 -20 4 -20 -7 0 -172 128 -332 258 -69 56 -101 89 -98 99 7 18 89 123
96 123 3 0 89 -69 191 -153z m-511 -222 c488 -398 641 -523 680 -559 25 -23
54 -47 64 -53 19 -10 19 -12 2 -37 -9 -15 -21 -24 -27 -20 -6 3 -9 0 -7 -8 4
-19 -41 -80 -54 -72 -7 5 -4 12 8 21 10 8 18 16 16 19 -5 9 30 54 39 49 4 -3
13 3 18 14 12 21 -10 48 -29 36 -6 -4 -10 -3 -9 2 3 19 -2 27 -10 14 -6 -9
-11 -10 -15 -2 -4 6 -2 11 5 11 8 0 6 7 -5 19 -15 16 -21 18 -37 8 -10 -6 -19
-17 -19 -23 0 -17 -37 -47 -52 -42 -13 5 -50 -34 -47 -49 4 -15 -13 -43 -26
-43 -19 0 -50 -40 -50 -66 -1 -17 7 -28 26 -36 15 -7 25 -16 22 -21 -3 -5 3
-6 14 -3 13 4 25 0 34 -11 11 -15 11 -16 -1 -5 -23 20 -35 14 -15 -8 11 -12
25 -18 34 -15 12 5 13 3 5 -5 -17 -17 -135 74 -127 98 6 14 4 15 -8 5 -13 -10
-24 -5 -65 29 -27 22 -203 164 -391 314 -189 151 -343 276 -343 279 0 3 48 68
106 145 94 122 109 138 124 127 9 -7 72 -57 140 -112z m767 -1 c-3 -3 -12 -4
-19 -1 -8 3 -5 6 6 6 11 1 17 -2 13 -5z m3 -24 c0 -5 -2 -10 -4 -10 -3 0 -8 5
-11 10 -3 6 -1 10 4 10 6 0 11 -4 11 -10z m45 -10 c4 -6 -1 -7 -12 -3 -16 6
-17 5 -3 -13 14 -18 14 -18 -2 -5 -10 7 -15 17 -12 22 7 12 21 11 29 -1z m41
-32 c10 -13 12 -17 4 -11 -11 10 -18 9 -34 -5 -21 -17 -21 -17 -3 4 9 11 14
24 10 27 -3 4 -4 7 -1 7 3 0 13 -10 24 -22z m-172 -43 c-4 -10 0 -15 11 -15 9
0 14 4 10 9 -3 5 -1 12 4 15 17 11 21 -11 6 -24 -14 -11 -12 -15 12 -31 15
-11 23 -19 18 -19 -20 0 -79 56 -71 68 10 17 16 15 10 -3z m-794 -402 c14 -12
57 -48 97 -80 120 -98 243 -204 243 -209 0 -3 -25 16 -55 41 -48 42 -57 46
-72 34 -13 -10 -15 -11 -9 -1 4 7 1 24 -9 38 -13 20 -19 23 -31 13 -18 -15
-18 -29 2 -29 9 0 12 5 8 12 -4 7 -3 8 5 4 19 -12 0 -28 -26 -21 -16 4 -22 2
-18 -5 3 -5 2 -10 -3 -10 -5 0 -33 -30 -61 -66 -47 -62 -50 -68 -36 -87 8 -12
15 -26 15 -32 0 -7 -3 -7 -8 0 -4 6 -23 22 -42 35 -37 25 -202 155 -257 201
l-32 27 87 116 86 115 45 -37 c25 -20 57 -47 71 -59z m-375 -92 c-4 -27 -2
-49 9 -69 14 -28 14 -31 -5 -48 -17 -15 -43 -20 -124 -25 -89 -5 -109 -9 -156
-36 -59 -32 -111 -98 -129 -161 -6 -23 -10 -212 -10 -489 l0 -453 -49 0 c-90
0 -146 -79 -105 -148 25 -44 53 -52 175 -52 110 0 111 0 138 -29 34 -36 98
-54 173 -49 l57 4 3 -200 c2 -111 2 -214 0 -230 l-4 -29 -284 5 c-156 3 -286
7 -289 10 -3 2 -8 362 -11 799 -7 858 -5 897 44 997 33 68 121 161 182 192 79
41 120 49 258 49 l134 1 -7 -39z m1165 -15 c0 -2 -7 -7 -16 -10 -8 -3 -12 -2
-9 4 6 10 25 14 25 6z m-123 -38 c-3 -8 -6 -5 -6 6 -1 11 2 17 5 13 3 -3 4
-12 1 -19z m133 -7 c-5 -11 -15 -23 -22 -27 -7 -5 -8 -2 -3 7 21 37 44 55 25
20z m-560 -81 c0 -5 -2 -10 -4 -10 -3 0 -8 5 -11 10 -3 6 -1 10 4 10 6 0 11
-4 11 -10z m-10 -24 c0 -3 -4 -8 -10 -11 -5 -3 -10 -1 -10 4 0 6 5 11 10 11 6
0 10 -2 10 -4z m514 -21 c-9 -14 -18 -25 -21 -25 -5 0 5 18 20 38 17 22 18 13
1 -13z m-668 -41 c-4 -9 -9 -15 -11 -12 -3 3 -3 13 1 22 4 9 9 15 11 12 3 -3
3 -13 -1 -22z m633 0 c17 11 13 1 -8 -18 -14 -13 -21 -14 -27 -5 -5 8 -3 10 6
4 9 -6 10 -1 5 16 -4 17 -3 20 3 10 5 -7 15 -10 21 -7z m-1027 -21 c18 -15 35
-30 38 -33 3 -3 86 -70 185 -149 233 -186 212 -164 189 -198 -10 -15 -21 -34
-24 -41 -4 -9 -42 15 -117 75 -61 48 -172 135 -247 192 -148 112 -142 102 -92
159 25 28 27 28 68 -5z m752 -44 c-13 -14 -20 -16 -31 -8 -7 6 -13 14 -13 16
0 3 7 0 15 -7 12 -10 15 -10 15 3 0 18 -26 41 -39 33 -5 -3 -7 3 -4 14 5 18 7
18 39 -7 33 -24 34 -27 18 -44z m-353 -13 c-7 -9 1 -21 31 -44 34 -26 44 -30
57 -20 9 7 13 8 8 3 -4 -4 0 -17 10 -27 35 -39 2 -27 -61 22 -41 32 -64 58
-63 69 1 11 7 17 14 14 9 -4 10 -9 4 -17z m294 -66 c-10 -11 -20 -18 -23 -15
-3 3 -12 -1 -20 -8 -13 -11 -14 -9 -1 10 7 12 16 18 20 12 3 -6 11 -4 19 6 7
8 15 15 18 15 3 0 -3 -9 -13 -20z m-45 6 c0 -2 -8 -10 -17 -17 -16 -13 -17
-12 -4 4 13 16 21 21 21 13z m10 -51 c-14 -17 -30 -20 -30 -4 0 5 4 8 9 4 5
-3 12 -1 16 5 3 5 9 10 12 10 3 0 0 -7 -7 -15z m-95 -34 c6 -11 44 -9 65 4 13
7 13 6 2 -7 -8 -10 -20 -14 -29 -11 -12 5 -15 2 -10 -10 5 -14 1 -13 -23 5
-17 12 -30 23 -30 25 0 7 19 2 25 -6z m-115 -171 c0 -5 -5 -10 -11 -10 -5 0
-7 5 -4 10 3 6 8 10 11 10 2 0 4 -4 4 -10z m39 -71 c-29 -41 -34 -42 -66 -14
-15 13 -22 25 -15 25 6 0 12 -4 12 -10 0 -5 8 -7 18 -4 14 5 15 4 2 -5 -12 -9
-11 -11 8 -11 15 0 21 4 16 12 -4 6 -3 8 3 5 6 -4 13 0 17 8 3 8 0 15 -7 16
-9 0 -9 2 1 6 6 2 9 9 6 14 -3 6 -11 5 -20 -2 -9 -7 -14 -8 -14 -1 0 18 24 20
42 4 17 -14 16 -16 -3 -43z m143 -658 c4 0 12 -10 18 -20 7 -15 6 -23 -6 -35
-14 -14 -68 -16 -443 -16 -456 0 -458 0 -449 47 3 17 28 18 388 23 345 4 470
5 492 1z m-192 -421 c0 -194 -1 -210 -17 -209 -11 0 -13 3 -5 6 9 3 12 54 12
204 l0 199 -190 0 -190 0 0 -115 c0 -63 3 -115 6 -115 3 0 21 16 40 36 19 20
34 33 35 28 0 -5 4 2 10 14 9 23 36 26 32 4 -2 -6 6 -16 17 -22 26 -14 26 -30
0 -30 -12 0 -20 -7 -20 -16 0 -10 -6 -14 -14 -11 -10 4 -12 0 -9 -14 3 -10 0
-19 -6 -19 -6 0 -11 5 -11 10 0 6 -7 10 -15 10 -8 0 -15 -9 -15 -20 0 -11 -4
-20 -10 -20 -5 0 -10 -11 -10 -25 0 -16 -6 -25 -15 -25 -11 0 -15 -12 -15 -45
l0 -45 198 -3 197 -2 -202 -3 -203 -2 0 220 0 220 200 0 200 0 0 -210z m1155
-385 c53 -22 87 -68 93 -125 l5 -50 -1477 0 -1476 0 0 35 c0 71 46 128 115
146 17 4 633 7 1370 7 1022 -1 1347 -4 1370 -13z"/>
<path d="M4525 4551 c-3 -6 3 -9 14 -8 11 0 17 5 15 9 -7 11 -22 10 -29 -1z"/>
<path d="M3960 4096 c0 -2 8 -10 18 -17 15 -13 16 -12 3 4 -13 16 -21 21 -21
13z"/>
</g>
</svg>
